<svg width="18" height="19" viewBox="0 0 18 19" fill="none" xmlns="http://www.w3.org/2000/svg">
<path d="M15.7914 10.1008C15.8298 9.81333 15.8489 9.51625 15.8489 9.2C15.8489 8.89333 15.8298 8.58667 15.7818 8.29917L17.7273 6.785C17.8998 6.65083 17.9477 6.39208 17.8423 6.20042L16.0023 3.01875C15.8873 2.80792 15.6477 2.74083 15.4368 2.80792L13.1464 3.72792C12.6672 3.36375 12.1593 3.05708 11.5939 2.82708L11.2489 0.392917C11.2106 0.162917 11.0189 0 10.7889 0H7.10892C6.87892 0 6.69683 0.162917 6.6585 0.392917L6.3135 2.82708C5.74808 3.05708 5.23058 3.37333 4.761 3.72792L2.47058 2.80792C2.25975 2.73125 2.02017 2.80792 1.90517 3.01875L0.0747503 6.20042C-0.0402497 6.40167 -0.00191644 6.65083 0.18975 6.785L2.13517 8.29917C2.08725 8.58667 2.04892 8.90292 2.04892 9.2C2.04892 9.49708 2.06808 9.81333 2.116 10.1008L0.170584 11.615C-0.00191643 11.7492 -0.049833 12.0079 0.0555837 12.1996L1.89558 15.3813C2.01058 15.5921 2.25017 15.6592 2.461 15.5921L4.75142 14.6721C5.23058 15.0363 5.7385 15.3429 6.30392 15.5729L6.64892 18.0071C6.69683 18.2371 6.87892 18.4 7.10892 18.4H10.7889C11.0189 18.4 11.2106 18.2371 11.2393 18.0071L11.5843 15.5729C12.1498 15.3429 12.6673 15.0363 13.1368 14.6721L15.4273 15.5921C15.6381 15.6688 15.8777 15.5921 15.9927 15.3813L17.8327 12.1996C17.9477 11.9888 17.8998 11.7492 17.7177 11.615L15.7914 10.1008ZM8.94892 12.65C7.05142 12.65 5.49892 11.0975 5.49892 9.2C5.49892 7.3025 7.05142 5.75 8.94892 5.75C10.8464 5.75 12.3989 7.3025 12.3989 9.2C12.3989 11.0975 10.8464 12.65 8.94892 12.65Z" fill="white"/>
</svg>
