<svg width="15" height="17" viewBox="0 0 15 17" fill="none" xmlns="http://www.w3.org/2000/svg">
<path d="M7.49914 7.43188C6.7642 7.43188 6.04576 7.21394 5.43468 6.80563C4.82359 6.39732 4.34731 5.81697 4.06606 5.13797C3.78481 4.45897 3.71123 3.71182 3.85461 2.991C3.99799 2.27017 4.35189 1.60806 4.87158 1.08837C5.39126 0.568691 6.05338 0.214783 6.7742 0.0714024C7.49502 -0.0719779 8.24217 0.00161006 8.92117 0.282861C9.60017 0.564111 10.1805 1.04039 10.5888 1.65148C10.9971 2.26256 11.2151 2.981 11.2151 3.71594C11.2151 4.70147 10.8236 5.64663 10.1267 6.3435C9.42983 7.04038 8.48467 7.43188 7.49914 7.43188V7.43188ZM7.49914 1.23865C7.00918 1.23865 6.53022 1.38394 6.12283 1.65615C5.71544 1.92835 5.39792 2.31525 5.21042 2.76792C5.02292 3.22059 4.97386 3.71869 5.06945 4.19923C5.16504 4.67978 5.40098 5.12119 5.74743 5.46765C6.09389 5.8141 6.5353 6.05004 7.01585 6.14563C7.49639 6.24122 7.99449 6.19216 8.44716 6.00466C8.89982 5.81716 9.28672 5.49964 9.55893 5.09225C9.83114 4.68486 9.97643 4.2059 9.97643 3.71594C9.97643 3.05892 9.71543 2.42881 9.25085 1.96423C8.78627 1.49965 8.15616 1.23865 7.49914 1.23865Z" fill="white"/>
<path d="M7.5 16.1024C6.12661 16.1015 4.77052 15.7961 3.52934 15.2082C2.28816 14.6202 1.19277 13.7644 0.322048 12.7023L0 12.306L0.322048 11.9158C1.19351 10.8551 2.28921 10.0007 3.53035 9.4141C4.77149 8.8275 6.12722 8.52325 7.5 8.52325C8.87278 8.52325 10.2285 8.8275 11.4696 9.4141C12.7108 10.0007 13.8065 10.8551 14.678 11.9158L15 12.306L14.678 12.7023C13.8072 13.7644 12.7118 14.6202 11.4707 15.2082C10.2295 15.7961 8.87338 16.1015 7.5 16.1024V16.1024ZM1.62263 12.3122C2.37587 13.1185 3.28683 13.7615 4.29895 14.201C5.31107 14.6406 6.40274 14.8674 7.50619 14.8674C8.60964 14.8674 9.70132 14.6406 10.7134 14.201C11.7256 13.7615 12.6365 13.1185 13.3898 12.3122C12.6365 11.5058 11.7256 10.8629 10.7134 10.4233C9.70132 9.98373 8.60964 9.75691 7.50619 9.75691C6.40274 9.75691 5.31107 9.98373 4.29895 10.4233C3.28683 10.8629 2.37587 11.5058 1.62263 12.3122V12.3122Z" fill="white"/>
<path d="M0.797852 12.312C0.797852 12.312 7.03443 19.2794 13.3825 13.0057L14.2 12.312C14.2 12.312 8.8986 6.81245 3.51668 10.1134L0.797852 12.312Z" fill="white"/>
<path d="M7.49896 6.81274C9.20917 6.81274 10.5956 5.42633 10.5956 3.71612C10.5956 2.00591 9.20917 0.619507 7.49896 0.619507C5.78875 0.619507 4.40234 2.00591 4.40234 3.71612C4.40234 5.42633 5.78875 6.81274 7.49896 6.81274Z" fill="white"/>
</svg>
